<?xml version="1.0" encoding="utf-8"?>
<!-- Generator: Adobe Illustrator 25.4.1, SVG Export Plug-In . SVG Version: 6.00 Build 0)  -->
<svg version="1.1" id="Layer_1" xmlns="http://www.w3.org/2000/svg" xmlns:xlink="http://www.w3.org/1999/xlink" x="0px" y="0px"
	 viewBox="0 0 400 400" style="enable-background:new 0 0 400 400;" xml:space="preserve">
<style type="text/css">
	.st0{fill:#D0CBA1;}
	.st1{opacity:0.48;}
	.st2{fill:#4C7780;}
	.st3{fill:none;stroke:#D0CBA1;stroke-width:2;stroke-miterlimit:10;}
	.st4{opacity:0.54;fill:none;stroke:#4C7780;stroke-width:2;stroke-miterlimit:10;}
	.st5{fill:#FFFFFF;}
	.st6{fill:#D8D2C8;}
	.st7{fill:none;stroke:#8B6C71;stroke-width:2;stroke-miterlimit:10;}
	.st8{fill:none;stroke:#97A8AC;stroke-width:2;stroke-miterlimit:10;}
</style>
<g>
	<path class="st0" d="M235.87,54l-135.75,69.44l91.92,179.71l135.75-69.44L235.87,54z M118.15,145.36c-1.7,0.87-3.79,0.2-4.66-1.51
		c-0.87-1.7-0.2-3.79,1.51-4.66c1.7-0.87,3.79-0.2,4.66,1.51C120.53,142.4,119.85,144.48,118.15,145.36z"/>
</g>
<g class="st1">
	<polygon class="st2" points="127.47,113.86 120,162 123,168 142.43,171 152.75,116.01 	"/>
</g>
<g>
	<line class="st3" x1="261.91" y1="104.91" x2="126.16" y2="174.34"/>
	<line class="st3" x1="266.25" y1="113.39" x2="130.5" y2="182.83"/>
	<line class="st3" x1="270.2" y1="121.1" x2="134.45" y2="190.54"/>
	<line class="st3" x1="274.14" y1="128.82" x2="138.39" y2="198.25"/>
	<line class="st3" x1="278.48" y1="137.3" x2="142.73" y2="206.74"/>
	<line class="st3" x1="282.82" y1="145.79" x2="147.07" y2="215.22"/>
	<line class="st3" x1="287.16" y1="154.27" x2="151.41" y2="223.71"/>
	<line class="st3" x1="295.05" y1="169.7" x2="159.3" y2="239.13"/>
	<line class="st3" x1="299.79" y1="178.95" x2="164.04" y2="248.39"/>
	<line class="st3" x1="304.13" y1="187.44" x2="168.38" y2="256.87"/>
	<line class="st3" x1="308.86" y1="196.69" x2="173.11" y2="266.13"/>
	<line class="st3" x1="290.71" y1="161.21" x2="154.96" y2="230.65"/>
	<line class="st3" x1="315.96" y1="210.57" x2="180.21" y2="280.01"/>
	<line class="st3" x1="312.41" y1="203.63" x2="176.66" y2="273.07"/>
	<line class="st3" x1="319.91" y1="218.29" x2="184.16" y2="287.72"/>
	<line class="st3" x1="323.85" y1="226" x2="188.1" y2="295.44"/>
	<line class="st3" x1="258.36" y1="97.96" x2="122.61" y2="167.4"/>
	<line class="st3" x1="254.42" y1="90.25" x2="118.67" y2="159.69"/>
	<line class="st4" x1="112.47" y1="117.12" x2="204.39" y2="296.84"/>
	<g>
		<circle class="st5" cx="154.44" cy="216.32" r="3.47"/>
	</g>
	<g>
		<circle class="st5" cx="191.92" cy="289.59" r="3.47"/>
	</g>
</g>
<g>
	<g id="XMLID_00000139260140429155702550000000702313110827606689_">
		<path class="st6" d="M143.28,115.55l-15.43-1.69l-4.59,42.04l-0.99,8.95l-0.87,8.05l-1.08,9.84l-0.98,8.95l-0.98,8.94l-1.08,9.84
			l-1.08,9.83l-1.07,9.85l-0.88,8.05l-1.08,9.83L112,258.76l-1.07,9.85l-1.18,10.73l-0.88,8.05l-0.88,8.05l-0.98,8.94l-0.98,8.95
			l-0.98,8.95l15.43,1.69l154.24,16.87l0.97-8.94l0.98-8.95l0.98-8.94l0.88-8.05l0.88-8.05l1.18-10.73l1.07-9.85l1.18-10.73
			l1.08-9.84l0.88-8.04l1.07-9.85l1.08-9.83l1.08-9.84l0.98-8.95l0.98-8.94l1.08-9.84l0.87-8.05l0.99-8.95l4.6-42.04L143.28,115.55z
			 M132.25,136.06c2.13,0.24,3.68,2.02,3.47,4c-0.22,1.98-2.12,3.39-4.25,3.16c-2.13-0.24-3.68-2.03-3.46-4
			C128.23,137.24,130.12,135.83,132.25,136.06z"/>
		<g>
			<polyline class="st7" points="291.05,191.45 136.83,174.57 121.4,172.89 			"/>
			<polyline class="st7" points="289.97,201.29 135.75,184.42 120.32,182.73 			"/>
			<polyline class="st7" points="289,210.23 134.76,193.36 119.34,191.68 			"/>
			<polyline class="st7" points="288.02,219.18 133.79,202.3 118.36,200.62 			"/>
			<polyline class="st7" points="286.94,229.02 132.71,212.15 117.29,210.46 			"/>
			<polyline class="st7" points="285.87,238.86 131.63,221.98 116.21,220.3 			"/>
			<polyline class="st7" points="284.79,248.7 130.56,231.83 115.14,230.14 			"/>
			<polyline class="st7" points="282.84,266.59 128.6,249.71 113.17,248.03 			"/>
			<polyline class="st7" points="281.66,277.32 127.42,260.44 112.01,258.76 			"/>
			<polyline class="st7" points="280.58,287.16 126.35,270.29 110.93,268.6 			"/>
			<polyline class="st7" points="279.41,297.9 125.18,281.02 109.75,279.33 			"/>
			<polyline class="st7" points="283.92,256.75 129.68,239.88 114.25,238.19 			"/>
			<polyline class="st7" points="277.64,314 123.42,297.12 107.99,295.44 			"/>
			<polyline class="st7" points="278.53,305.95 124.29,289.07 108.87,287.39 			"/>
			<polyline class="st7" points="276.67,322.94 122.43,306.06 107.01,304.38 			"/>
			<line class="st7" x1="121" y1="315" x2="106.03" y2="313.32"/>
			<polyline class="st7" points="275.69,331.89 121.46,315.01 112.85,314.07 			"/>
			<polyline class="st7" points="291.93,183.41 137.7,166.53 122.28,164.84 			"/>
			<polyline class="st7" points="292.91,174.46 138.68,157.58 123.26,155.9 			"/>
			<polyline class="st8" points="143.28,115.55 138.68,157.58 137.7,166.53 136.83,174.57 135.75,184.42 134.76,193.36 
				133.79,202.3 132.71,212.15 131.63,221.98 130.56,231.83 129.68,239.88 128.6,249.71 127.42,260.44 126.35,270.29 125.18,281.02 
				124.29,289.07 123.42,297.12 122.43,306.06 121.46,315.01 120.48,323.96 			"/>
		</g>
	</g>
</g>
</svg>
