<?xml version="1.0" encoding="utf-8"?>
<!-- Generator: Adobe Illustrator 25.4.1, SVG Export Plug-In . SVG Version: 6.00 Build 0)  -->
<svg version="1.1" id="Layer_1" xmlns="http://www.w3.org/2000/svg" xmlns:xlink="http://www.w3.org/1999/xlink" x="0px" y="0px"
	 viewBox="0 0 400 400" style="enable-background:new 0 0 400 400;" xml:space="preserve">
<style type="text/css">
	.st0{fill:#FFB2B2;}
	.st1{opacity:0.48;}
	.st2{fill:#DB8FAA;}
	.st3{fill:none;stroke:#DB8F8F;stroke-width:2;stroke-miterlimit:10;}
	.st4{opacity:0.54;fill:none;stroke:#9FBCF7;stroke-width:2;stroke-miterlimit:10;}
	.st5{fill:#FFFFFF;}
	.st6{fill:#FBC9C3;}
	.st7{fill:none;stroke:#F190AC;stroke-width:2;stroke-miterlimit:10;}
	.st8{fill:none;stroke:#AEE0E8;stroke-width:2;stroke-miterlimit:10;}
</style>
<g>
	
		<rect x="137.72" y="77.65" transform="matrix(0.8903 -0.4554 0.4554 0.8903 -57.8477 117.0258)" class="st0" width="152.48" height="201.86"/>
</g>
<g class="st1">
	<polygon class="st2" points="127.47,113.86 120,162 123,168 142.43,171 152.75,116.01 	"/>
</g>
<g>
	<line class="st3" x1="261.91" y1="104.91" x2="126.16" y2="174.34"/>
	<line class="st3" x1="266.25" y1="113.39" x2="130.5" y2="182.83"/>
	<line class="st3" x1="270.2" y1="121.1" x2="134.45" y2="190.54"/>
	<line class="st3" x1="274.14" y1="128.82" x2="138.39" y2="198.25"/>
	<line class="st3" x1="278.48" y1="137.3" x2="142.73" y2="206.74"/>
	<line class="st3" x1="282.82" y1="145.79" x2="147.07" y2="215.22"/>
	<line class="st3" x1="287.16" y1="154.27" x2="151.41" y2="223.71"/>
	<line class="st3" x1="295.05" y1="169.7" x2="159.3" y2="239.13"/>
	<line class="st3" x1="299.79" y1="178.95" x2="164.04" y2="248.39"/>
	<line class="st3" x1="304.13" y1="187.44" x2="168.38" y2="256.87"/>
	<line class="st3" x1="308.86" y1="196.69" x2="173.11" y2="266.13"/>
	<line class="st3" x1="290.71" y1="161.21" x2="154.96" y2="230.65"/>
	<line class="st3" x1="315.96" y1="210.57" x2="180.21" y2="280.01"/>
	<line class="st3" x1="312.41" y1="203.63" x2="176.66" y2="273.07"/>
	<line class="st3" x1="319.91" y1="218.29" x2="184.16" y2="287.72"/>
	<line class="st3" x1="323.85" y1="226" x2="188.1" y2="295.44"/>
	<line class="st3" x1="258.36" y1="97.96" x2="122.61" y2="167.4"/>
	<line class="st3" x1="254.42" y1="90.25" x2="118.67" y2="159.69"/>
	<line class="st4" x1="112.47" y1="117.12" x2="204.39" y2="296.84"/>
	<g>
		<circle class="st5" cx="116.57" cy="142.27" r="3.47"/>
	</g>
	<g>
		<circle class="st5" cx="154.44" cy="216.32" r="3.47"/>
	</g>
	<g>
		<circle class="st5" cx="191.92" cy="289.59" r="3.47"/>
	</g>
</g>
<g>
	<g id="XMLID_00000139260140429155702550000000702313110827606689_">
		<g>
			<polygon class="st6" points="275.69,331.89 274.72,340.83 120.48,323.96 121.46,315.01 			"/>
			
				<rect x="194.56" y="241.4" transform="matrix(0.1085 -0.9941 0.9941 0.1085 -139.6343 482.2363)" class="st6" width="9" height="155.16"/>
			<polygon class="st6" points="277.65,314 276.67,322.94 122.43,306.06 123.42,297.12 277.64,314 			"/>
			<polygon class="st6" points="278.53,305.95 277.65,314 277.64,314 123.42,297.12 124.29,289.07 			"/>
			
				<rect x="197.8" y="215.9" transform="matrix(0.1092 -0.994 0.994 0.1092 -111.9113 462.0906)" class="st6" width="8.1" height="155.16"/>
			<polygon class="st6" points="280.59,287.17 279.41,297.9 125.18,281.02 126.35,270.29 280.58,287.16 			"/>
			<polygon class="st6" points="281.66,277.32 280.59,287.17 280.58,287.16 126.35,270.29 127.42,260.44 			"/>
			
				<rect x="199.73" y="185.94" transform="matrix(0.1091 -0.994 0.994 0.1091 -79.1914 438.676)" class="st6" width="10.79" height="155.16"/>
			<polygon class="st6" points="283.92,256.75 282.84,266.59 128.6,249.71 129.68,239.88 			"/>
			<polygon class="st6" points="284.8,248.7 283.92,256.75 129.68,239.88 130.56,231.83 284.79,248.7 			"/>
			<polygon class="st6" points="285.87,238.86 284.8,248.7 284.79,248.7 130.56,231.83 131.63,221.98 			"/>
			
				<rect x="204.34" y="147.92" transform="matrix(0.1088 -0.9941 0.9941 0.1088 -37.6439 409.018)" class="st6" width="9.89" height="155.16"/>
			
				<rect x="205.41" y="138.09" transform="matrix(0.1089 -0.9941 0.9941 0.1089 -26.9256 401.2914)" class="st6" width="9.9" height="155.16"/>
			<polygon class="st6" points="289,210.23 288.02,219.18 133.79,202.3 134.76,193.36 			"/>
			<polygon class="st6" points="289.98,201.29 289,210.23 134.76,193.36 135.75,184.42 289.97,201.29 			"/>
			<polygon class="st6" points="291.06,191.45 289.98,201.29 289.97,201.29 135.75,184.42 136.83,174.57 291.05,191.45 			"/>
			<polygon class="st6" points="291.93,183.41 291.06,191.45 291.05,191.45 136.83,174.57 137.7,166.53 			"/>
			<polygon class="st6" points="292.92,174.46 291.93,183.41 137.7,166.53 138.68,157.58 292.91,174.46 			"/>
			<polygon class="st6" points="297.52,132.42 292.92,174.46 292.91,174.46 138.68,157.58 143.28,115.55 			"/>
			<path class="st6" d="M121.46,315.01l-0.98,8.95l-15.43-1.69l0.98-8.95l6.46,0.71c0.09,0.01,0.19,0.03,0.29,0.04
				c0.03,0.01,0.04,0,0.07,0.01L121.46,315.01z"/>
			<polygon class="st6" points="123.42,297.12 122.43,306.06 107.01,304.38 107.01,304.37 107.99,295.44 			"/>
			<polygon class="st6" points="124.29,289.07 123.42,297.12 107.99,295.44 108.87,287.38 108.87,287.39 			"/>
			<polygon class="st6" points="125.18,281.02 124.29,289.07 108.87,287.39 108.87,287.38 109.75,279.33 			"/>
			
				<rect x="112.65" y="267.05" transform="matrix(0.1091 -0.994 0.994 0.1091 -167.9963 362.1782)" class="st6" width="10.79" height="15.52"/>
			<path class="st5" d="M117.03,310.9c-0.21,1.95-2.07,3.35-4.18,3.17c-0.03-0.01-0.04,0-0.07-0.01c-0.1-0.01-0.19-0.02-0.29-0.04
				c-1.97-0.36-3.38-2.08-3.17-3.97c0.21-1.97,2.12-3.39,4.24-3.15C115.69,307.13,117.25,308.93,117.03,310.9z"/>
			<polygon class="st6" points="126.35,270.29 110.93,268.6 112,258.76 112.01,258.76 127.42,260.44 			"/>
			<polygon class="st6" points="128.6,249.71 127.42,260.44 112.01,258.76 112,258.76 113.17,248.03 			"/>
			<path class="st6" d="M107.01,304.38l15.42,1.68l-0.98,8.95l-8.61-0.94c2.11,0.18,3.97-1.22,4.18-3.17c0.22-1.97-1.33-3.77-3.47-4
				c-2.12-0.23-4.03,1.18-4.24,3.15c-0.21,1.89,1.2,3.6,3.17,3.97l-6.46-0.71L107.01,304.38L107.01,304.38z"/>
			
				<rect x="116.48" y="236.19" transform="matrix(0.1088 -0.9941 0.9941 0.1088 -134.2878 338.1205)" class="st6" width="9.89" height="15.52"/>
			
				<rect x="118.36" y="227.25" transform="matrix(0.1092 -0.994 0.994 0.1092 -124.561 331.03)" class="st6" width="8.1" height="15.52"/>
			<polygon class="st6" points="132.71,212.15 131.63,221.98 116.21,220.3 116.21,220.3 117.28,210.46 117.29,210.46 			"/>
			<polygon class="st6" points="133.79,202.3 132.71,212.15 117.29,210.46 117.28,210.46 118.36,200.62 			"/>
			<polygon class="st6" points="134.76,193.36 133.79,202.3 118.36,200.62 119.34,191.68 			"/>
			<polygon class="st6" points="135.75,184.42 134.76,193.36 119.34,191.68 120.32,182.73 			"/>
			<path class="st5" d="M126.33,225.93c-0.21,1.97-2.12,3.39-4.25,3.16c-2.13-0.24-3.68-2.03-3.46-4c0.21-1.97,2.12-3.39,4.25-3.15
				C124.99,222.16,126.54,223.96,126.33,225.93z"/>
			
				<rect x="123.62" y="170.89" transform="matrix(0.1089 -0.9941 0.9941 0.1089 -63.0192 287.0049)" class="st6" width="9.9" height="15.52"/>
			<polygon class="st6" points="136.83,174.57 121.4,172.89 122.27,164.84 122.28,164.84 137.7,166.53 			"/>
			<polygon class="st6" points="138.68,157.58 137.7,166.53 122.28,164.84 122.27,164.84 123.26,155.9 			"/>
			<path class="st6" d="M130.56,231.83l-15.43-1.69l1.07-9.85l0.01,0l15.42,1.68L130.56,231.83z M122.08,229.09
				c2.13,0.23,4.04-1.19,4.25-3.16c0.21-1.97-1.33-3.77-3.47-4c-2.13-0.24-4.03,1.18-4.25,3.15
				C118.4,227.06,119.95,228.86,122.08,229.09z"/>
			<path class="st6" d="M138.68,157.58l-15.43-1.69l4.59-42.04l15.43,1.69L138.68,157.58z M131.47,143.22
				c2.13,0.23,4.03-1.18,4.25-3.16c0.21-1.97-1.34-3.76-3.47-4s-4.03,1.18-4.25,3.15C127.79,141.19,129.34,142.98,131.47,143.22z"/>
		</g>
		<g>
			<polyline class="st7" points="291.05,191.45 136.83,174.57 121.4,172.89 			"/>
			<polyline class="st7" points="289.97,201.29 135.75,184.42 120.32,182.73 			"/>
			<polyline class="st7" points="289,210.23 134.76,193.36 119.34,191.68 			"/>
			<polyline class="st7" points="288.02,219.18 133.79,202.3 118.36,200.62 			"/>
			<polyline class="st7" points="286.94,229.02 132.71,212.15 117.29,210.46 			"/>
			<polyline class="st7" points="285.87,238.86 131.63,221.98 116.21,220.3 			"/>
			<polyline class="st7" points="284.79,248.7 130.56,231.83 115.14,230.14 			"/>
			<polyline class="st7" points="282.84,266.59 128.6,249.71 113.17,248.03 			"/>
			<polyline class="st7" points="281.66,277.32 127.42,260.44 112.01,258.76 			"/>
			<polyline class="st7" points="280.58,287.16 126.35,270.29 110.93,268.6 			"/>
			<polyline class="st7" points="279.41,297.9 125.18,281.02 109.75,279.33 			"/>
			<polyline class="st7" points="283.92,256.75 129.68,239.88 114.25,238.19 			"/>
			<polyline class="st7" points="277.64,314 123.42,297.12 107.99,295.44 			"/>
			<polyline class="st7" points="278.53,305.95 124.29,289.07 108.87,287.39 			"/>
			<polyline class="st7" points="276.67,322.94 122.43,306.06 107.01,304.38 			"/>
			<line class="st7" x1="112.49" y1="314.03" x2="106.03" y2="313.32"/>
			<polyline class="st7" points="275.69,331.89 121.46,315.01 112.85,314.07 			"/>
			<polyline class="st7" points="291.93,183.41 137.7,166.53 122.28,164.84 			"/>
			<polyline class="st7" points="292.91,174.46 138.68,157.58 123.26,155.9 			"/>
			<polyline class="st8" points="143.28,115.55 138.68,157.58 137.7,166.53 136.83,174.57 135.75,184.42 134.76,193.36 
				133.79,202.3 132.71,212.15 131.63,221.98 130.56,231.83 129.68,239.88 128.6,249.71 127.42,260.44 126.35,270.29 125.18,281.02 
				124.29,289.07 123.42,297.12 122.43,306.06 121.46,315.01 120.48,323.96 			"/>
		</g>
	</g>
</g>
</svg>
