<?xml version="1.0" encoding="utf-8"?>
<!-- Generator: Adobe Illustrator 25.4.1, SVG Export Plug-In . SVG Version: 6.00 Build 0)  -->
<svg version="1.1" xmlns="http://www.w3.org/2000/svg" xmlns:xlink="http://www.w3.org/1999/xlink" x="0px" y="0px"
	 viewBox="0 0 400 400" style="enable-background:new 0 0 400 400;" xml:space="preserve">
<style type="text/css">
	.st0{fill:#6B6068;}
	.st1{fill:none;}
	.st2{fill:#9BA69A;}
	.st3{fill:#ADB6B0;}
</style>
<g id="Layer_3">
	<path class="st0" d="M53.59,226.91c-6.7,1.95-12.03,9.97-8.57,16.03c0.93,1.64,2.36,2.92,3.77,4.17
		c6.72,5.99,13.22,13.11,20.31,18.56c6.86,5.27,16.65,7.08,24.96,9.22c19.69,5.07,39.89,7.75,60.06,10.07
		c29.8,3.43,59.84,6.11,89.76,3.95c29.92-2.16,59.88-9.36,85.74-24.56c6-3.53,12.18-8.03,14.03-14.75
		c2.49-9.04-3.93-18.22-11.42-23.88c-20.05-15.17-47.29-15.38-72.43-14.95c-24.18,0.42-48.43,1.38-72.62,1.26
		c-7.97-0.04-12.99-2.75-20.31-4.88c-9.6-2.79-20.48-1.01-30.25-0.06c-13.96,1.36-28.16,2.78-41.09,8.21
		c-6.65,2.79-12.75,6.64-19.25,9.73C68.2,228.87,61.92,224.49,53.59,226.91z"/>
	<path class="st1" d="M47.89,199.32c-4.22-1.05-8.44-2.11-12.66-3.16"/>
</g>
<g id="Layer_1">
	<g>
		<path class="st2" d="M313.92,267.88c5.21-2.83,11.31-7.89,17-9.43c5.04-1.36,10.83,1.1,15.4-2.38c3.72-2.84,4.21-8.48,2.47-12.82
			c-1.74-4.34-5.2-7.72-8.45-11.08c-7.74-8.01-14.51-16.88-20.92-25.97c-3.02-4.29-7.81-9.34-9.61-14.27
			c-1.58-4.32-0.88-7.42-3.48-11.82c-10.99-18.58-26.93-34.98-44.16-47.83c-12.92-9.63-27.32-17.54-42.93-21.54
			s-32.51-3.9-47.52,1.96c-13.77,5.38-25.38,15.33-34.78,26.74c-9.99,12.13-17.83,25.09-28.43,36.69
			c-5.86,6.42-9.69,18.21-11.26,26.66c-0.58,3.1,0.27,6.48-1.46,9.24c-2.94,4.69-9.85,4.21-14.19,6.7
			c-4.28,2.45-6.6,7.51-6.74,12.43c-0.14,4.93,1.63,9.73,3.97,14.06c8.89,16.51,26.31,26.59,44.68,28.32
			c9.54,0.9,15.13,4.19,24.06,7.42c11.63,4.21,23.84,6.76,36.01,8.8C227.85,297.12,274.49,289.29,313.92,267.88z"/>
	</g>
</g>
<g id="Layer_2">
	<path class="st3" d="M182.13,123.76c-4.81,0.97-9.7,2.37-13.48,5.49c-3.79,3.11-6.22,8.31-4.82,13.01
		c1.63,5.51,7.63,8.42,13.19,9.83c10.57,2.68,21.72,2.36,32.32,4.92c10.6,2.56,21.38,9.16,24.03,19.74
		c1.26,5.02,0.55,10.47,2.46,15.28c3.76,9.48,15.48,12.44,25.54,14.09c7.5,1.24,16.01,2.22,21.99-2.48
		c4.74-3.73,6.54-10.26,6.06-16.27C285.58,139.76,223.37,115.47,182.13,123.76z"/>
</g>
</svg>
