<?xml version="1.0" encoding="utf-8"?>
<!-- Generator: Adobe Illustrator 25.4.1, SVG Export Plug-In . SVG Version: 6.00 Build 0)  -->
<svg version="1.1" xmlns="http://www.w3.org/2000/svg" xmlns:xlink="http://www.w3.org/1999/xlink" x="0px" y="0px"
	 viewBox="0 0 400 400" style="enable-background:new 0 0 400 400;" xml:space="preserve">
<style type="text/css">
	.st0{fill:#7DB1B7;}
	.st1{fill:#D8D6EC;}
	.st2{fill:#AEE0E8;}
</style>
<g id="Layer_3">
	<path class="st0" d="M99.61,225.93c-4.54,1.32-8.15,6.76-5.81,10.87c0.63,1.11,1.6,1.98,2.56,2.83c4.56,4.06,8.96,8.89,13.77,12.58
		c4.65,3.57,11.29,4.8,16.92,6.25c13.35,3.44,27.05,5.25,40.72,6.83c20.2,2.33,40.58,4.14,60.86,2.68
		c20.28-1.46,40.6-6.34,58.14-16.65c4.07-2.39,8.26-5.45,9.52-10c1.69-6.13-2.67-12.36-7.74-16.19
		c-13.6-10.29-32.07-10.43-49.11-10.14c-16.4,0.28-32.84,0.94-49.24,0.85c-5.4-0.03-8.81-1.87-13.77-3.31
		c-6.51-1.89-13.89-0.69-20.51-0.04c-9.46,0.92-19.09,1.89-27.86,5.56c-4.51,1.89-8.64,4.5-13.05,6.6
		C109.51,227.26,105.25,224.29,99.61,225.93z"/>
	<path class="st1" d="M90.31,196.38c-2.86-0.72-5.72-1.43-8.58-2.15"/>
</g>
<g id="Layer_1">
	<g>
		<path class="st2" d="M273.41,244.91c3.53-1.92,7.67-5.35,11.53-6.39c3.42-0.92,7.35,0.75,10.44-1.62
			c2.52-1.92,2.86-5.75,1.67-8.69c-1.18-2.94-3.52-5.23-5.73-7.52c-5.25-5.43-9.84-11.44-14.18-17.61
			c-2.05-2.91-5.29-6.33-6.52-9.67c-1.07-2.93-0.6-5.03-2.36-8.01c-7.45-12.6-18.26-23.72-29.95-32.43
			c-8.76-6.53-18.52-11.9-29.11-14.61c-10.58-2.71-22.04-2.65-32.22,1.33c-9.34,3.65-17.21,10.39-23.58,18.13
			c-6.78,8.23-12.09,17.01-19.27,24.88c-3.98,4.36-6.57,12.35-7.64,18.08c-0.39,2.1,0.18,4.39-0.99,6.26
			c-1.99,3.18-6.68,2.86-9.62,4.54c-2.9,1.66-4.48,5.09-4.57,8.43c-0.09,3.34,1.1,6.59,2.69,9.54c6.03,11.19,17.84,18.03,30.3,19.2
			c6.47,0.61,10.26,2.84,16.31,5.03c7.89,2.85,16.16,4.59,24.42,5.97C215.05,264.73,246.67,259.42,273.41,244.91z"/>
	</g>
</g>
<g id="Layer_2">
</g>
</svg>
