<?xml version="1.0" encoding="utf-8"?>
<!-- Generator: Adobe Illustrator 25.4.1, SVG Export Plug-In . SVG Version: 6.00 Build 0)  -->
<svg version="1.1" id="Layer_1" xmlns="http://www.w3.org/2000/svg" xmlns:xlink="http://www.w3.org/1999/xlink" x="0px" y="0px"
	 viewBox="0 0 400 400" style="enable-background:new 0 0 400 400;" xml:space="preserve">
<style type="text/css">
	.st0{fill:#CCCCCC;}
	.st1{fill:#BFBFBF;}
</style>
<g>
	<path class="st0" d="M304.53,235.2c7.39-41.23-7.2-91.82-38.93-119.95c-7.2-6.38-15.27-12.05-24.46-14.86
		c-17.82-5.46-37.05,0.48-54.11,7.99c-15.69,6.91-31.46,15.83-40.5,30.39c-10.25,16.52-10.53,38.29-22.9,53.29
		c-6.81,8.26-16.56,13.5-24.46,20.72S85,231,88.44,241.15c2.28,6.74,8.29,11.43,14.22,15.37c50.9,33.79,119.22,39.57,175.08,14.81
		c4.8-2.13,9.58-4.51,13.5-8C299.13,256.3,302.67,245.61,304.53,235.2z"/>
	<g>
		<path class="st1" d="M307.61,236.05c7.75-39.64-3.23-83.47-29.15-114.56c-15.2-18.24-35.75-31.11-60.21-28.38
			c-12.47,1.39-24.27,5.66-35.69,10.68c-10.05,4.42-19.74,9.72-28.2,16.77c-8.48,7.07-14.58,15.92-18.73,26.11
			c-4.05,9.95-6.14,20.66-10.58,30.46c-4.79,10.59-12.71,16.94-21.78,23.76c-9,6.76-17.43,14.28-21.09,25.3
			c-8.07,24.25,18.41,38.44,36.36,47.28c20.21,9.95,41.9,16.08,64.25,18.65c24.79,2.86,50.34,0.83,74.34-6.07
			c12.26-3.52,25.97-7.91,36.22-15.7c10.59-8.04,15.4-20.64,17.78-33.33c1.61-8.61-11.58-12.3-13.2-3.64
			c-1.8,9.62-4.69,20.03-12.89,26.2c-8.07,6.08-18.96,9.44-28.51,12.37c-18.74,5.75-38.28,8.27-57.86,7.7
			c-19.85-0.58-39.49-4.46-58.1-11.37c-9.14-3.4-17.96-7.64-26.38-12.57c-7.02-4.11-18.72-9.8-19.86-18.94
			c-1.21-9.7,7.71-17.95,14.53-23.36c7.81-6.19,15.93-11.65,21.87-19.83c11.48-15.82,11.47-36.74,22.08-52.93
			c10.68-16.29,31.6-25.75,49.37-31.91c10.81-3.75,22.64-6.37,34.04-3.99c10.72,2.24,19.98,8.68,27.95,15.94
			c30.33,27.62,43.3,73.69,37.28,113.68C300.86,238.32,306.81,240.14,307.61,236.05z"/>
	</g>
</g>
</svg>
