<?xml version="1.0" encoding="utf-8"?>
<!-- Generator: Adobe Illustrator 25.4.1, SVG Export Plug-In . SVG Version: 6.00 Build 0)  -->
<svg version="1.1" id="Layer_1" xmlns="http://www.w3.org/2000/svg" xmlns:xlink="http://www.w3.org/1999/xlink" x="0px" y="0px"
	 viewBox="0 0 400 400" style="enable-background:new 0 0 400 400;" xml:space="preserve">
<style type="text/css">
	.st0{fill:#9CB3CC;}
	.st1{fill:#8CD35E;}
	.st2{fill:#ABD84A;}
	.st3{fill:#CDD9E6;}
	.st4{fill:#C8FF5F;}
	.st5{fill:#90CC5C;}
</style>
<path class="st0" d="M223.62,210.33c1.9-1.7,2.94-3.74,3.78-5.99c-0.43-2.06-1.5-4.04-2.83-5.71c-6.96-8.74-15.62-9.36-24.26-6.2
	c3.12-0.48,4.86-0.74,4.86-0.74s-24.11,18.38-51.78,41.04c-0.21,0.03-0.44,0.06-0.65,0.09c-1.99,1.9-4.03,3.75-6.14,5.5
	c-34.07,28.2-70.94,61.03-74.04,73.42c0,0,59.27-24.91,117.41-71.61c4.81-3.87,9.43-7.96,14.06-11.99c0.98-0.85,2-1.67,3.05-2.47
	c2.12-1.88,4.22-3.78,6.32-5.72C216.83,216.78,220.13,213.45,223.62,210.33z"/>
<path class="st1" d="M281.19,184.81c-4.51,0.85-8.98,1.22-13.07,2.33c-2.04,0.56-3.99,1.29-5.65,2.33c-1.68,1.05-3.17,2.38-4.27,3.9
	c-1.09,1.52-1.79,3.2-1.87,4.83c-0.13,1.64,0.36,3.21,1.26,4.66c0.91,1.45,2.28,2.68,3.8,3.62c1.5,0.91,3.34,1.54,5.24,1.9
	c3.82,0.76,8.18,0.61,12.39,0.21c4.24-0.43,8.45-1.38,12.62-2.52c8.28-2.43,16.36-5.95,23.55-10.82
	c7.16-4.84,13.57-11.1,17.39-18.89c0.97-1.92,1.72-3.99,2.29-6.04c0.5-2.04,0.65-4.19,0.31-6.23c-0.37-2.01-1.27-3.95-2.9-5.17
	c-0.8-0.6-1.73-1.09-2.72-1.35c-0.98-0.31-2.01-0.38-3.01-0.23c-1.01,0.12-2,0.49-2.92,1.01c-0.93,0.5-1.8,1.15-2.63,1.86
	c-1.68,1.41-3.13,3.11-4.74,4.7c-1.62,1.58-3.25,3.13-4.98,4.58c-1.69,1.5-3.46,2.9-5.28,4.25c-3.67,2.64-7.55,5.05-11.72,6.93
	C290.13,182.59,285.7,183.92,281.19,184.81z M280.71,181.76c8.64-1.14,17.07-4.3,24.45-9.22c3.69-2.45,7.17-5.27,10.31-8.41
	c1.55-1.58,3.03-3.28,4.73-4.82c0.84-0.77,1.76-1.5,2.78-2.1c1.01-0.61,2.14-1.09,3.35-1.27c1.2-0.22,2.46-0.16,3.63,0.17
	c1.18,0.27,2.3,0.8,3.3,1.51c2.07,1.4,3.31,3.76,3.84,6.09c0.51,2.36,0.44,4.78-0.01,7.1c-0.49,2.3-1.13,4.51-2.04,6.65
	c-3.56,8.62-9.98,15.76-17.27,21.35c-7.32,5.64-15.62,9.94-24.42,12.83c-4.4,1.45-8.96,2.49-13.61,3.09
	c-4.67,0.57-9.38,0.78-14.37-0.19c-2.48-0.53-4.94-1.41-7.24-2.88c-2.26-1.45-4.19-3.43-5.56-5.84c-1.38-2.39-2.06-5.39-1.63-8.21
	c0.37-2.84,1.73-5.34,3.41-7.31c1.7-1.98,3.75-3.51,5.96-4.67c2.25-1.16,4.6-1.83,6.9-2.32
	C271.85,182.38,276.38,182.31,280.71,181.76z"/>
<path class="st2" d="M348.95,158.99c-0.45-10.43-5.51-22.44-15.8-24.21c-9.83-1.69-18.13,6.72-25.22,13.75
	c-11.71,11.61-25.33,21.27-40.1,28.59c-7.46,3.7-15.22,6.8-23.18,9.25c-3.53,1.09-8.93,1.36-12.05,3.18
	c-2.54,1.48-2.98,8.1-3.97,11.11c-0.41,1.27-0.8,2.5-1.24,3.68c0.23,1.1,0.28,2.23,0.08,3.35c-0.74,3.97-4.29,6.7-7.58,9.04
	c-4.18,2.97-8.7,5.78-12.81,8.94c-0.64,0.57-1.27,1.14-1.91,1.7c8.39-1.69,15.31-3.64,20.11-5.91c16.89-7.98,37.18,5.39,55.79,3.72
	c18.61-1.66,37.41-8.13,50.56-21.4C343.22,192.08,349.66,175.45,348.95,158.99z M335.8,171.3c-6.26,24.2-38.76,40.13-61.5,40.76
	c-4.46,0.12-9.07-0.22-13.08-2.16c-4.02-1.95-7.35-5.78-7.64-10.24c-0.38-5.88,4.55-10.97,10.02-13.16
	c5.48-2.19,11.52-2.28,17.35-3.21c13.48-2.15,24.71-8.86,34.38-18.23c4.1-3.97,8.44-10.35,15.09-8.02
	C336.48,159.16,337.18,165.97,335.8,171.3z"/>
<g>
	<path class="st3" d="M200.31,192.43C175.32,196.3,60.96,214.98,24.5,237.9c0,0,53.61,0.36,106.42-2.62
		c7.68-0.64,14.95-1.49,21.81-2.46c0.21-0.03,0.44-0.06,0.65-0.09c27.67-22.67,51.78-41.04,51.78-41.04S203.43,191.95,200.31,192.43
		z"/>
</g>
<path class="st4" d="M257.28,100.5c-5.34-6.93-12.74-12.53-21.28-14.48c-13.28-3.03-28.18,4.07-34.2,16.29
	c-9.83,19.95,6.13,42.09,6.86,62.3c0.23,6.27,0.83,15.72-1.66,21.65c-2.36,5.61-8.43,9.24-10.95,15.1
	c-2.74,6.37-2.44,14.59,2.58,19.36c6.09,5.79,16.59,4.06,22.92-1.46c15.68-13.67,7.31-34,15.69-51.21
	c6.17-12.68,16.31-23.18,24.66-34.41c2.43-3.26,3.68-6.63,4.04-10.04C266.78,115.66,262.73,107.57,257.28,100.5z M234.17,138.08
	c-4.53-0.17-8.88-2.15-12.35-5.06c-6.89-5.76-10.35-15.98-6.7-24.19c5.88-13.26,25.29-13.26,32.87-1.79
	C255.97,119.13,250.88,138.72,234.17,138.08z"/>
<path class="st5" d="M215.27,109.42c-2.13,4.11-2.48,9.4-0.76,14.07c1.72,4.69,5.34,8.54,9.63,10.85c2.17,1.12,4.49,1.89,6.84,2.12
	c2.32,0.21,4.74-0.08,6.85-0.82c2.12-0.75,3.95-2,5.36-3.61c1.43-1.59,2.4-3.55,3.04-5.6c1.23-4.14,1-8.73-0.39-12.75
	c-0.7-1.99-1.7-3.95-2.98-5.45c-1.24-1.54-2.74-2.92-4.55-3.92c-3.52-2.14-8.02-3.09-12.4-2.45c-2.17,0.38-4.29,1.17-6.17,2.42
	C217.9,105.6,216.44,107.4,215.27,109.42z M212.61,108.24c1.04-2.56,2.59-4.95,4.62-6.98c2.1-1.93,4.6-3.45,7.33-4.45
	c5.46-1.91,11.76-1.73,17.23,0.93c2.75,1.27,5.21,3.28,7.12,5.71c0.99,1.22,1.81,2.48,2.45,3.83c0.67,1.34,1.23,2.72,1.62,4.15
	c1.65,5.67,1.35,11.83-1.07,17.21c-1.19,2.69-2.99,5.15-5.27,7.05c-2.27,1.92-5.04,3.19-7.85,3.7c-5.6,1.09-11.29-0.43-15.65-3.42
	c-2.21-1.46-4.19-3.25-5.78-5.33c-1.59-2.08-2.91-4.33-3.92-6.74c-1.01-2.4-1.72-4.96-1.94-7.63
	C211.3,113.61,211.64,110.85,212.61,108.24z"/>
</svg>
